# GGBot / ggbot.net / 2021-07-25, update 2022-01-10


#
# object Car3
#

v -1.110216 0.747692 -2.083188
v -0.844558 0.747692 -2.083188
v -0.844558 0.886165 -1.756965
v -1.110216 0.886166 -1.756965
v -1.110217 0.419101 -2.215948
v -0.844558 0.419101 -2.215948
v -1.110216 0.092878 -2.077474
v -0.844558 0.092878 -2.077474
v -1.110216 -0.039882 -1.748883
v -0.844558 -0.039882 -1.748883
v -1.110216 0.098592 -1.422660
v -0.844558 0.098592 -1.422660
v -1.110216 0.427183 -1.289900
v -0.844558 0.427183 -1.289900
v -1.110216 0.753406 -1.428374
v -0.844559 0.753406 -1.428374
v -1.090021 0.427183 1.372663
v -0.824363 0.427182 1.372663
v -0.824363 0.753406 1.511136
v -1.090021 0.753406 1.511137
v -1.090021 0.098592 1.505422
v -0.824363 0.098592 1.505422
v -1.090021 -0.039882 1.831646
v -0.824363 -0.039882 1.831645
v -1.090021 0.092877 2.160236
v -0.824363 0.092877 2.160236
v -1.090021 0.419101 2.298710
v -0.824363 0.419101 2.298710
v -1.090021 0.747692 2.165951
v -0.824363 0.747692 2.165951
v -1.090021 0.886165 1.839727
v -0.824363 0.886165 1.839727
v 0.000000 2.103997 1.121122
v -0.714963 2.030407 1.883935
v -0.732972 2.087884 1.121123
v 0.000000 2.098640 -0.482974
v -0.769172 2.082528 -0.442242
v -0.000000 1.428232 -1.215787
v -1.098140 1.428232 -1.096903
v -0.000000 1.199030 -2.758511
v -1.030681 1.198968 -2.743597
v -0.933421 0.348509 2.476084
v -0.948121 0.814943 2.684811
v 0.000001 0.814826 2.711489
v -0.897047 0.348521 2.477114
v -0.000000 0.595555 -2.724329
v -0.978180 0.596025 -2.703964
v -1.098140 1.436175 -0.600570
v -0.921364 1.270900 2.684985
v -1.005054 1.336017 2.248573
v -1.131742 0.942225 -1.586245
v -1.107288 0.756036 -2.154011
v -1.049310 1.426553 1.291062
v -1.041767 0.315037 -1.166065
v -0.000000 0.387536 -2.566629
v -1.112608 0.785525 -1.357588
v -1.077411 0.509209 -1.249081
v -1.124290 0.927051 -1.937523
v -1.062795 0.312510 -0.586841
v -1.053534 0.330530 0.946414
v -0.948263 0.386186 -2.519348
v -1.114759 0.909822 1.638625
v -1.100997 0.713225 1.405762
v -0.993390 0.385803 -2.264896
v -1.127800 0.953124 -1.801325
v -1.065437 0.724478 2.265341
v -1.097482 0.913897 2.018018
v -1.052626 0.335085 1.333898
v -1.054746 0.587300 -2.236998
v 0.000001 2.046520 1.883935
v -1.049691 0.315369 -1.241982
v -1.008325 0.347208 2.365387
v -1.015510 0.346921 2.340995
v 0.000001 1.270788 2.711660
v 0.000001 0.348521 2.477114
v -0.640986 1.035536 -1.570392
v -0.621852 0.878836 -1.341734
v -0.586654 0.602520 -1.233227
v -0.563990 0.680611 -2.221144
v -0.558934 0.408680 -1.226128
v -0.502634 0.479114 -2.249043
v -0.616532 0.849347 -2.138157
v -0.633534 1.020362 -1.921670
v -0.637044 1.046435 -1.785471
v -0.619337 0.972551 1.618095
v -0.602060 0.976626 1.997488
v -0.570014 0.787206 2.244811
v -0.557203 0.397813 1.313368
v -0.520087 0.409650 2.320464
v -0.605574 0.775954 1.385232
v 1.041767 0.315037 -1.166065
v 1.049691 0.315369 -1.241982
v 0.558934 0.408680 -1.226129
v 0.557204 0.397813 1.313368
v 0.993390 0.385803 -2.264896
v 0.948263 0.386186 -2.519348
v 0.502634 0.479114 -2.249043
v 0.897048 0.348521 2.477114
v 0.933422 0.348509 2.476084
v 0.520088 0.409650 2.320464
v 1.008326 0.347208 2.365387
v 1.015511 0.346921 2.340994
v 1.052626 0.335085 1.333898
v 1.053535 0.330530 0.946414
v 1.062795 0.312510 -0.586841
v -1.107380 1.572023 -0.453590
v -1.107380 1.572977 -0.380706
v -1.324033 1.545417 -0.328745
v -1.324033 1.544463 -0.401629
v -1.086276 1.414293 -0.378629
v -1.113529 1.410827 -0.372093
v -1.302930 1.386733 -0.326668
v -1.302930 1.385779 -0.399552
v -1.116242 1.409527 -0.444326
v -1.086276 1.413339 -0.451513
v -1.089449 1.369681 -0.374800
v -1.090806 1.368554 -0.447358
v -0.000000 0.586466 -2.803296
v -0.958357 0.589149 -2.598348
v -0.000000 0.588298 -2.663364
v -0.964484 0.586801 -2.777677
v -0.000000 0.791905 -2.692805
v -0.964483 0.790409 -2.807118
v -0.000000 0.790073 -2.832737
v -0.969276 0.792240 -2.667186
v -1.061442 0.588660 -2.635686
v -1.052686 0.790951 -2.765662
v -1.035181 0.587344 -2.736221
v -0.995997 0.592869 -2.314192
v -1.105667 0.797327 -2.278607
v -1.078947 0.792267 -2.665127
v -1.088163 0.592896 -2.312133
v -0.995997 0.797300 -2.280666
v 0.000001 0.554284 2.753247
v 0.000001 0.552300 2.601692
v -0.886045 0.551601 2.548299
v -0.892171 0.553949 2.727628
v 0.000001 0.756732 2.638726
v 0.000001 0.758564 2.778658
v -0.892171 0.758228 2.753039
v -0.896964 0.756396 2.613107
v -0.989130 0.552090 2.585636
v -0.980374 0.757685 2.711583
v -0.962869 0.553406 2.686171
v -0.923685 0.550544 2.467528
v -1.006634 0.756369 2.611048
v -1.033354 0.753972 2.427913
v -1.015851 0.550517 2.465469
v -0.923685 0.753999 2.429972
v 1.110216 0.747692 -2.083189
v 1.110216 0.886166 -1.756965
v 0.844558 0.886165 -1.756965
v 0.844558 0.747692 -2.083189
v 1.110216 0.419101 -2.215948
v 0.844558 0.419101 -2.215948
v 1.110216 0.092878 -2.077474
v 0.844557 0.092878 -2.077474
v 1.110216 -0.039882 -1.748884
v 0.844558 -0.039882 -1.748884
v 1.110216 0.098592 -1.422660
v 0.844558 0.098592 -1.422660
v 1.110216 0.427183 -1.289900
v 0.844558 0.427183 -1.289901
v 1.110216 0.753406 -1.428374
v 0.844558 0.753406 -1.428374
v 1.090022 0.427183 1.372662
v 1.090022 0.753406 1.511136
v 0.824364 0.753406 1.511136
v 0.824364 0.427182 1.372662
v 1.090022 0.098592 1.505422
v 0.824364 0.098592 1.505422
v 1.090022 -0.039882 1.831645
v 0.824364 -0.039882 1.831645
v 1.090023 0.092877 2.160236
v 0.824364 0.092877 2.160236
v 1.090022 0.419101 2.298710
v 0.824364 0.419101 2.298710
v 1.090022 0.747692 2.165951
v 0.824364 0.747692 2.165951
v 1.090022 0.886165 1.839727
v 0.824364 0.886165 1.839727
v 0.732972 2.087884 1.121122
v 0.714964 2.030407 1.883935
v 0.769172 2.082528 -0.442242
v 1.098140 1.428232 -1.096903
v 1.030681 1.198968 -2.743598
v 0.948122 0.814943 2.684811
v 0.978179 0.596025 -2.703964
v 1.098141 1.436175 -0.600570
v 0.921366 1.270900 2.684984
v 1.005055 1.336017 2.248573
v 1.131742 0.942225 -1.586245
v 1.107288 0.756036 -2.154011
v 1.049311 1.426553 1.291062
v 1.112608 0.785525 -1.357588
v 1.077411 0.509209 -1.249081
v 1.124290 0.927051 -1.937523
v 1.100998 0.713225 1.405762
v 1.114760 0.909822 1.638625
v 1.127800 0.953124 -1.801325
v 1.097483 0.913897 2.018018
v 1.065438 0.724478 2.265340
v 1.054746 0.587300 -2.236998
v 0.640985 1.035536 -1.570392
v 0.637043 1.046435 -1.785472
v 0.633534 1.020362 -1.921670
v 0.563990 0.680611 -2.221145
v 0.616531 0.849347 -2.138157
v 0.586654 0.602520 -1.233227
v 0.621852 0.878836 -1.341735
v 0.619338 0.972551 1.618094
v 0.605575 0.775954 1.385231
v 0.570015 0.787206 2.244810
v 0.602061 0.976626 1.997488
v 1.107381 1.572023 -0.453590
v 1.324034 1.544463 -0.401629
v 1.324034 1.545417 -0.328745
v 1.107381 1.572977 -0.380707
v 1.302930 1.386733 -0.326668
v 1.113529 1.410827 -0.372093
v 1.086277 1.414293 -0.378629
v 1.086277 1.413339 -0.451513
v 1.116242 1.409527 -0.444326
v 1.302930 1.385779 -0.399552
v 1.089449 1.369681 -0.374800
v 1.090806 1.368554 -0.447358
v 0.958357 0.589149 -2.598348
v 0.964483 0.586801 -2.777677
v 0.964483 0.790409 -2.807119
v 0.969276 0.792240 -2.667187
v 1.061442 0.588660 -2.635686
v 1.052685 0.790951 -2.765662
v 1.035181 0.587344 -2.736221
v 0.995996 0.592869 -2.314192
v 1.078946 0.792267 -2.665127
v 1.105666 0.797327 -2.278607
v 1.088163 0.592896 -2.312133
v 0.995996 0.797300 -2.280667
v 0.886046 0.551601 2.548299
v 0.892173 0.553949 2.727628
v 0.892172 0.758228 2.753038
v 0.896965 0.756396 2.613107
v 0.989131 0.552090 2.585636
v 0.980375 0.757685 2.711582
v 0.962870 0.553406 2.686171
v 0.923686 0.550544 2.467527
v 1.033356 0.753972 2.427912
v 1.006636 0.756369 2.611047
v 1.015852 0.550517 2.465468
v 0.923686 0.753999 2.429972
# 250 vertices

vn 0.000000 0.920505 -0.390731
vn -0.000000 0.374607 -0.927184
vn -0.000000 -0.390731 -0.920505
vn 0.000000 -0.927184 -0.374606
vn 0.000000 -0.920505 0.390731
vn 0.000001 -0.374607 0.927184
vn 0.000001 0.390731 0.920505
vn 0.000001 0.927184 0.374606
vn 1.000000 0.000000 -0.000000
vn 1.000000 0.000001 0.000001
vn 1.000000 0.000003 0.000002
vn -1.000000 -0.000000 0.000000
vn -1.000000 0.000001 0.000000
vn -1.000000 0.000000 0.000000
vn -0.000001 0.390731 -0.920505
vn -0.000001 -0.374607 -0.927184
vn -0.000000 -0.920505 -0.390731
vn 0.000000 -0.927184 0.374607
vn 0.000001 -0.390731 0.920505
vn 0.000000 0.374606 0.927184
vn -0.000000 0.920505 0.390731
vn -0.000000 0.927184 -0.374606
vn 1.000000 0.000001 -0.000000
vn -1.000000 0.000001 -0.000000
vn -1.000000 0.000001 -0.000001
vn -0.021914 0.996895 0.075633
vn -0.021099 0.999773 -0.002937
vn -0.074270 0.723764 -0.686039
vn -0.002056 0.990433 -0.137979
vn -0.015907 0.989018 -0.146938
vn -0.025716 -0.409004 0.912170
vn -0.014441 -0.056545 -0.998296
vn -0.020800 -0.067381 -0.997510
vn -0.890464 0.454996 -0.007283
vn -0.892934 0.449781 0.019135
vn -0.847437 0.476720 0.233643
vn -0.990175 0.127122 -0.058262
vn -0.974812 -0.098050 -0.200321
vn -0.895250 0.442224 0.054457
vn -0.998717 -0.050626 0.000809
vn -0.978869 0.057368 0.196275
vn -0.016879 -0.604038 -0.796777
vn -0.981462 -0.052652 0.184283
vn -0.993999 0.033148 -0.104250
vn -0.999980 0.001962 0.006017
vn -0.021977 0.999753 -0.003338
vn -0.036338 -0.663020 -0.747719
vn -0.051134 0.736859 -0.674110
vn -0.903699 0.420338 0.081513
vn -0.992932 0.055039 -0.105150
vn -0.944485 -0.282398 -0.167929
vn -0.984259 0.165810 0.061170
vn -0.927489 0.373846 0.001944
vn -0.973656 0.101733 0.204071
vn -0.868230 -0.016824 -0.495877
vn -0.963031 -0.065011 0.261430
vn -0.961991 -0.219952 -0.161843
vn -0.980579 0.191443 0.042598
vn -0.996967 -0.008917 0.077316
vn -0.022467 0.996922 0.075117
vn -0.899256 0.436683 0.025435
vn -0.999187 -0.031117 0.025635
vn -0.985260 -0.137152 0.102237
vn -0.950171 -0.267065 -0.160785
vn -0.998829 -0.031864 -0.036400
vn -0.984077 0.168169 -0.057551
vn -0.999992 0.003128 0.002307
vn -0.963515 0.101922 0.247490
vn -0.956681 -0.069875 0.282629
vn -0.028527 0.000459 0.999593
vn -0.018285 0.728726 0.684561
vn 0.000000 -0.449086 0.893489
vn -0.796521 -0.267699 0.542118
vn -0.988398 -0.148576 -0.031542
vn -0.974714 -0.216763 -0.054287
vn -0.973058 -0.228196 0.032923
vn -0.999331 -0.030713 -0.019872
vn -0.991279 -0.125249 0.040973
vn -0.991615 -0.123514 0.037997
vn -0.988835 -0.137436 0.057591
vn 0.097187 -0.353040 -0.930547
vn 0.171538 -0.805907 -0.566647
vn 0.188033 -0.981072 -0.046267
vn 0.177499 -0.965715 0.189441
vn 0.127005 -0.773468 0.620980
vn 0.052151 -0.427608 0.902459
vn -0.005596 -0.138816 0.990302
vn 0.038181 -0.031117 -0.998786
vn 0.122276 -0.754792 0.644466
vn 0.063292 -0.178509 0.981901
vn -0.015488 -0.198418 -0.979995
vn 0.074275 -0.787046 -0.612407
vn 0.125813 -0.992042 0.004927
vn -0.189806 -0.981809 -0.004905
vn -0.068821 -0.972844 0.220994
vn 0.058075 -0.998276 -0.008468
vn 0.068822 -0.972844 0.220994
vn -0.226976 -0.970664 -0.079329
vn 0.191247 -0.981516 0.007136
vn 0.355705 -0.934556 0.008835
vn 0.135972 -0.990710 -0.002259
vn 0.010106 -0.999949 0.000163
vn 0.118077 -0.988813 -0.091138
vn 0.000001 -0.999931 0.011752
vn 0.000000 -0.999931 0.011750
vn -0.000135 -0.931170 -0.364586
vn -0.121011 -0.990720 -0.061890
vn -0.010842 -0.999941 0.000155
vn -0.128147 -0.991719 0.008509
vn -0.355704 -0.934557 0.008835
vn -0.129243 0.991528 -0.012980
vn 0.227827 0.043033 0.972750
vn -0.227826 -0.043032 -0.972750
vn -0.227827 -0.043034 -0.972750
vn -0.991274 -0.131810 0.001726
vn 0.991273 0.131811 -0.001726
vn 0.129243 -0.991528 0.012980
vn 0.996215 -0.086543 -0.008058
vn 0.224562 0.067473 0.972121
vn -0.854891 -0.517776 0.032709
vn -0.224563 -0.067475 -0.972121
vn 0.000000 -0.999914 0.013090
vn -0.000000 0.999914 -0.013090
vn -0.000000 0.999914 -0.013089
vn -0.026329 -0.143060 -0.989364
vn -0.026329 -0.143061 -0.989364
vn 0.000001 -0.999914 0.013090
vn -0.502655 -0.123716 -0.855589
vn 0.000001 -0.999914 0.013089
vn 0.000000 0.999914 -0.013090
vn -0.420363 -0.165149 -0.892200
vn -0.992016 -0.096949 -0.080657
vn -0.994945 -0.074067 -0.067810
vn 0.022000 -0.159959 0.986878
vn 0.018488 -0.161803 0.986650
vn -0.000001 0.999914 -0.013090
vn -0.961075 -0.118703 -0.249490
vn -0.000002 -0.999914 0.013088
vn -0.961074 -0.118702 -0.249492
vn 0.000000 -0.999914 0.013089
vn -0.028438 -0.123392 0.991950
vn -0.502338 -0.106736 0.858058
vn -0.419979 -0.147382 0.895486
vn -0.969915 -0.110118 0.217114
vn -0.987735 -0.058233 0.144876
vn -0.000000 -0.999914 0.013090
vn 0.022023 -0.179647 -0.983485
vn 0.018509 -0.181490 -0.983219
vn -0.000001 0.999914 -0.013089
vn -0.960893 -0.113748 0.252481
vn -0.000001 -0.999914 0.013090
vn -0.960891 -0.113745 0.252488
vn -0.000000 0.920505 -0.390731
vn -0.000000 -0.927184 -0.374606
vn -0.000000 -0.920505 0.390731
vn -0.000001 -0.374607 0.927184
vn -0.000001 0.390731 0.920505
vn -0.000000 0.927184 0.374606
vn -1.000000 -0.000000 0.000001
vn 1.000000 0.000000 0.000001
vn 1.000000 -0.000000 0.000002
vn 0.000000 0.390731 -0.920505
vn 0.000001 -0.374607 -0.927184
vn 0.000000 -0.920505 -0.390731
vn -0.000000 -0.927184 0.374607
vn -0.000000 -0.390731 0.920505
vn 0.000000 0.920505 0.390731
vn 0.000000 0.927184 -0.374606
vn 1.000000 0.000000 -0.000001
vn 1.000000 0.000001 0.000000
vn 0.021914 0.996895 0.075633
vn 0.021099 0.999773 -0.002937
vn 0.074270 0.723764 -0.686039
vn 0.002056 0.990433 -0.137979
vn 0.015907 0.989018 -0.146938
vn 0.025717 -0.409004 0.912170
vn 0.014441 -0.056545 -0.998296
vn 0.020799 -0.067381 -0.997510
vn 0.890464 0.454996 -0.007284
vn 0.892934 0.449781 0.019135
vn 0.847437 0.476720 0.233643
vn 0.990175 0.127122 -0.058262
vn 0.974812 -0.098050 -0.200321
vn 0.895250 0.442224 0.054457
vn 0.998717 -0.050626 0.000809
vn 0.978869 0.057368 0.196275
vn 0.016878 -0.604038 -0.796777
vn 0.981462 -0.052652 0.184283
vn 0.993999 0.033148 -0.104251
vn 0.999980 0.001962 0.006016
vn 0.021977 0.999753 -0.003338
vn 0.036338 -0.663020 -0.747719
vn 0.051134 0.736859 -0.674110
vn 0.903699 0.420338 0.081513
vn 0.992932 0.055039 -0.105150
vn 0.944485 -0.282398 -0.167930
vn 0.984259 0.165810 0.061170
vn 0.927489 0.373846 0.001944
vn 0.973656 0.101733 0.204071
vn 0.868229 -0.016824 -0.495878
vn 0.963031 -0.065011 0.261429
vn 0.961991 -0.219952 -0.161844
vn 0.980579 0.191443 0.042598
vn 0.996967 -0.008917 0.077315
vn 0.022467 0.996922 0.075117
vn 0.899256 0.436683 0.025434
vn 0.999187 -0.031117 0.025634
vn 0.985260 -0.137152 0.102237
vn 0.950171 -0.267065 -0.160786
vn 0.998829 -0.031864 -0.036400
vn 0.984077 0.168169 -0.057551
vn 0.999992 0.003128 0.002307
vn 0.963515 0.101922 0.247490
vn 0.956681 -0.069876 0.282629
vn 0.028528 0.000459 0.999593
vn 0.018286 0.728726 0.684561
vn 0.796521 -0.267700 0.542118
vn 0.983425 -0.180845 -0.013050
vn 0.885979 -0.395199 0.242607
vn 0.974714 -0.216763 -0.054288
vn 0.988398 -0.148576 -0.031543
vn 0.990631 -0.129724 0.042680
vn 0.991615 -0.123515 0.037997
vn 0.993127 -0.107457 0.046380
vn -0.097187 -0.353040 -0.930547
vn -0.171538 -0.805907 -0.566647
vn -0.188033 -0.981072 -0.046267
vn -0.177499 -0.965715 0.189441
vn -0.127005 -0.773468 0.620980
vn -0.052151 -0.427608 0.902459
vn 0.005597 -0.138816 0.990302
vn -0.038182 -0.031116 -0.998786
vn -0.122276 -0.754792 0.644466
vn -0.063292 -0.178509 0.981901
vn 0.015487 -0.198418 -0.979995
vn -0.074275 -0.787046 -0.612407
vn -0.125813 -0.992042 0.004927
vn 0.129243 0.991528 -0.012980
vn -0.227827 0.043033 0.972750
vn -0.227822 0.043033 0.972752
vn 0.227826 -0.043034 -0.972750
vn 0.227826 -0.043033 -0.972751
vn 0.991274 -0.131810 0.001725
vn -0.991273 0.131811 -0.001725
vn -0.129243 -0.991528 0.012980
vn -0.996216 -0.086543 -0.008057
vn -0.224561 0.067473 0.972121
vn 0.854891 -0.517776 0.032709
vn 0.224563 -0.067475 -0.972121
vn 0.000000 0.999914 -0.013089
vn 0.026329 -0.143060 -0.989364
vn 0.026329 -0.143061 -0.989364
vn 0.502655 -0.123716 -0.855589
vn -0.000001 -0.999914 0.013089
vn 0.420363 -0.165149 -0.892200
vn 0.992016 -0.096949 -0.080658
vn 0.994945 -0.074067 -0.067810
vn -0.022000 -0.159959 0.986878
vn -0.018487 -0.161803 0.986650
vn 0.000001 0.999914 -0.013090
vn 0.961075 -0.118703 -0.249490
vn 0.000002 -0.999914 0.013088
vn 0.961074 -0.118702 -0.249492
vn -0.000000 -0.999914 0.013089
vn 0.028438 -0.123392 0.991950
vn 0.502338 -0.106736 0.858058
vn 0.419979 -0.147382 0.895486
vn 0.969915 -0.110118 0.217114
vn 0.987735 -0.058233 0.144876
vn -0.022024 -0.179647 -0.983485
vn -0.018509 -0.181490 -0.983219
vn 0.000001 0.999914 -0.013089
vn 0.960893 -0.113748 0.252481
vn 0.960891 -0.113745 0.252488
# 274 vertex normals

vt 0.932570 0.650000 1.000000
vt 0.932570 0.600000 1.000000
vt 0.895141 0.600000 1.000000
vt 0.895141 0.650000 1.000000
vt 0.970000 0.650000 1.000000
vt 0.970000 0.600000 1.000000
vt 0.707993 0.650000 1.000000
vt 0.707993 0.600000 1.000000
vt 0.670563 0.600000 1.000000
vt 0.670563 0.650000 1.000000
vt 0.745422 0.650000 1.000000
vt 0.745422 0.600000 1.000000
vt 0.782852 0.650000 1.000000
vt 0.782852 0.600000 1.000000
vt 0.820281 0.650000 1.000000
vt 0.820281 0.600000 1.000000
vt 0.857711 0.650000 1.000000
vt 0.857711 0.600000 1.000000
vt 0.820281 0.680281 -0.250000
vt 0.926148 0.724133 -0.250000
vt 0.970000 0.830000 -0.250000
vt 0.820281 0.979719 -0.250000
vt 0.926148 0.935867 -0.250000
vt 0.714415 0.935867 -0.250000
vt 0.670563 0.830000 -0.250000
vt 0.714415 0.724133 -0.250000
vt 0.714415 0.724133 0.250000
vt 0.670563 0.830000 0.250000
vt 0.714415 0.935867 0.250000
vt 0.926148 0.935867 0.250000
vt 0.820281 0.979719 0.250000
vt 0.970000 0.830000 0.250000
vt 0.926148 0.724133 0.250000
vt 0.820281 0.680281 0.250000
vt 0.705458 0.544069 0.000000
vt 0.842015 0.415941 0.000000
vt 0.705458 0.412713 0.000000
vt 0.410723 0.543647 0.000000
vt 0.418001 0.406226 0.000000
vt 0.251183 0.543466 0.000000
vt 0.272423 0.347272 0.000000
vt 0.008127 0.543647 0.000000
vt 0.010791 0.359504 0.000000
vt 0.010761 0.582209 0.000000
vt 0.008127 0.665302 0.000000
vt 0.178040 0.665218 0.000000
vt 0.017280 0.582209 0.000000
vt 0.398664 0.730998 0.000000
vt 0.213956 0.622825 0.000000
vt 0.213956 0.731044 0.000000
vt 0.389255 0.622861 0.000000
vt 0.392702 0.213797 0.000000
vt 0.305327 0.213983 0.000000
vt 0.421955 0.332231 0.000000
vt 0.702786 0.329428 0.000000
vt 0.981067 0.176474 0.000000
vt 0.903017 0.189166 0.000000
vt 0.839343 0.317339 0.000000
vt 0.214916 0.127596 0.000000
vt 0.008127 0.176318 0.000000
vt 0.013815 0.068181 0.000000
vt 0.112739 0.095564 0.000000
vt 0.731649 0.207636 0.000000
vt 0.288738 0.014222 0.000000
vt 0.979966 0.094769 0.000000
vt 0.213956 0.585179 0.000000
vt 0.255522 0.098980 0.000000
vt 0.274318 0.049211 0.000000
vt 0.151933 0.125701 0.000000
vt 0.392526 0.012411 0.000000
vt 0.667319 0.012043 0.000000
vt 0.383894 0.584826 0.000000
vt 0.792718 0.114225 0.000000
vt 0.750529 0.079542 0.000000
vt 0.092000 0.029481 0.000000
vt 0.046405 0.030146 0.000000
vt 0.176400 0.130054 0.000000
vt 0.904587 0.079542 0.000000
vt 0.860713 0.114065 0.000000
vt 0.736765 0.011950 0.000000
vt 0.097472 0.065522 0.000000
vt 0.842015 0.544069 0.000000
vt 0.275135 0.014460 0.000000
vt 0.921630 0.011703 0.000000
vt 0.917259 0.011709 0.000000
vt 0.012922 0.747006 0.000000
vt 0.178040 0.746924 0.000000
vt 0.988519 0.544069 0.000000
vt 0.983739 0.378951 0.000000
vt 0.178040 0.582209 0.000000
vt 0.941469 0.011676 0.000000
vt 0.835118 0.080003 0.000000
vt 0.846846 0.071738 0.000000
vt 0.852274 0.057364 0.000000
vt 0.801198 0.062075 0.000000
vt 0.852510 0.047327 0.000000
vt 0.799617 0.051665 0.000000
vt 0.805607 0.070752 0.000000
vt 0.816927 0.079456 0.000000
vt 0.823994 0.080713 0.000000
vt 0.816442 0.081329 0.000000
vt 0.836600 0.081282 0.000000
vt 0.849608 0.071047 0.000000
vt 0.799854 0.051008 0.000000
vt 0.853364 0.050937 0.000000
vt 0.803934 0.071047 0.000000
vt 0.833698 0.066537 0.000000
vt 0.846419 0.070678 0.000000
vt 0.851301 0.057751 0.000000
vt 0.835108 0.062804 0.000000
vt 0.830651 0.068684 0.000000
vt 0.835872 0.078111 0.000000
vt 0.827762 0.068868 0.000000
vt 0.825868 0.078749 0.000000
vt 0.825927 0.068542 0.000000
vt 0.819513 0.077619 0.000000
vt 0.822986 0.066281 0.000000
vt 0.809332 0.069791 0.000000
vt 0.821841 0.064027 0.000000
vt 0.805367 0.061988 0.000000
vt 0.821431 0.061324 0.000000
vt 0.803946 0.052627 0.000000
vt 0.851513 0.048725 0.000000
vt 0.835169 0.060197 0.000000
vt 0.822552 0.066358 0.000000
vt 0.808680 0.068564 0.000000
vt 0.819639 0.077573 0.000000
vt 0.825801 0.069029 0.000000
vt 0.821492 0.061153 0.000000
vt 0.805105 0.051008 0.000000
vt 0.834415 0.066358 0.000000
vt 0.848695 0.068564 0.000000
vt 0.851987 0.050945 0.000000
vt 0.835391 0.061134 0.000000
vt 0.831036 0.069016 0.000000
vt 0.837299 0.077531 0.000000
vt 0.393922 0.881402 0.000000
vt 0.389854 0.880982 0.000000
vt 0.390769 0.907018 0.000000
vt 0.526842 0.907110 0.000000
vt 0.335090 0.883968 0.000000
vt 0.321456 0.886362 0.000000
vt 0.318923 0.936672 0.000000
vt 0.336005 0.910005 0.000000
vt 0.390769 0.966326 0.000000
vt 0.321456 0.986981 0.000000
vt 0.335090 0.989375 0.000000
vt 0.336005 0.963338 0.000000
vt 0.389854 0.992362 0.000000
vt 0.393922 0.991942 0.000000
vt 0.507131 0.992567 0.000000
vt 0.424958 0.993058 0.000000
vt 0.527897 0.992518 0.000000
vt 0.526841 0.966234 0.000000
vt 0.580815 0.964265 0.000000
vt 0.581871 0.990550 0.000000
vt 0.583179 0.990168 0.000000
vt 0.589166 0.984265 0.000000
vt 0.589111 0.986194 0.000000
vt 0.589167 0.936673 0.000000
vt 0.589167 0.889081 0.000000
vt 0.589111 0.887151 0.000000
vt 0.580815 0.909080 0.000000
vt 0.583179 0.883177 0.000000
vt 0.581872 0.882796 0.000000
vt 0.527898 0.880826 0.000000
vt 0.507131 0.880778 0.000000
vt 0.424958 0.880286 0.000000
vt 0.150000 0.046207 0.000000
vt 0.150000 0.010000 0.000000
vt 0.113793 0.010000 0.000000
vt 0.113793 0.046207 0.000000
vt 0.250000 0.085000 0.000000
vt 0.250000 0.010000 0.000000
vt 0.237421 0.010000 0.000000
vt 0.150000 0.085000 0.000000
vt 0.118801 0.010000 0.000000
vt 0.147921 0.009682 0.000000
vt 0.114439 0.009524 0.000000
vt 0.115539 0.045413 0.000000
vt 0.118347 0.010000 0.000000
vt 0.118801 0.046207 0.000000
vt 0.116070 0.010000 0.000000
vt 0.116297 0.046207 0.000000
vt 0.431489 0.779326 0.000000
vt 0.486490 0.595333 0.000000
vt 0.473903 0.777663 0.000000
vt 0.432089 0.596304 0.000000
vt 0.473906 0.777741 0.000000
vt 0.432427 0.596306 0.000000
vt 0.474811 0.593813 0.000000
vt 0.010000 0.820000 0.000000
vt 0.192857 0.777553 0.000000
vt 0.010000 0.777553 0.000000
vt 0.192857 0.820000 0.000000
vt 0.474407 0.576248 0.000000
vt 0.444369 0.579126 0.000000
vt 0.206261 0.777553 0.000000
vt 0.572341 0.584825 0.000000
vt 0.591635 0.563571 0.000000
vt 0.474659 0.573012 0.000000
vt 0.209580 0.820000 0.000000
vt 0.240076 0.820000 0.000000
vt 0.346543 0.777553 0.000000
vt 0.248396 0.777553 0.000000
vt 0.357324 0.820000 0.000000
vt 0.572281 0.567340 0.000000
vt 0.378118 0.777553 0.000000
vt 0.360644 0.777553 0.000000
vt 0.378117 0.820000 0.000000
vt 0.591788 0.584373 0.000000
vt 0.217899 0.777553 0.000000
vt 0.444129 0.582418 0.000000
vt 0.010000 0.870000 0.000000
vt 0.010000 0.827553 0.000000
vt 0.192857 0.827553 0.000000
vt 0.192857 0.870000 0.000000
vt 0.206261 0.827553 0.000000
vt 0.209580 0.870000 0.000000
vt 0.240076 0.870000 0.000000
vt 0.248396 0.827553 0.000000
vt 0.346543 0.827553 0.000000
vt 0.357324 0.870000 0.000000
vt 0.360644 0.827553 0.000000
vt 0.378118 0.827553 0.000000
vt 0.378117 0.870000 0.000000
vt 0.217899 0.827553 0.000000
# 227 texture coords

g Car3
s off
f 35/37/26 34/36/26 33/35/26
f 37/39/27 35/37/27 36/38/27
f 39/41/28 37/39/28 38/40/28
f 41/43/29 39/41/29 40/42/29
f 38/40/30 40/42/30 39/41/30
f 45/47/31 44/46/31 43/45/31 42/44/31
f 40/50/32 46/49/32 41/48/32
f 47/51/33 41/48/33 46/49/33
f 37/54/34 39/53/34 48/52/34
f 37/54/35 48/52/35 35/55/35
f 34/58/36 50/57/36 49/56/36
f 39/53/37 41/60/37 51/59/37
f 52/62/38 41/60/38 47/61/38
f 35/55/39 53/63/39 34/58/39
f 39/53/40 54/64/40 48/52/40
f 49/56/41 50/57/41 43/65/41
f 46/49/42 55/66/42 47/51/42
f 57/68/43 39/53/43 56/67/43
f 58/69/44 41/60/44 52/62/44
f 60/71/45 53/63/45 59/70/45
f 33/35/46 36/38/46 35/37/46
f 61/72/47 47/51/47 55/66/47
f 36/38/48 38/40/48 37/39/48
f 50/57/49 34/58/49 53/63/49
f 63/74/50 62/73/50 53/63/50
f 61/76/51 64/75/51 47/61/51
f 53/63/52 62/73/52 50/57/52
f 51/59/53 41/60/53 65/77/53
f 67/79/54 66/78/54 50/57/54
f 68/80/55 63/74/55 53/63/55
f 54/64/56 39/53/56 57/68/56
f 69/81/57 52/62/57 47/61/57
f 62/73/58 67/79/58 50/57/58
f 56/67/59 39/53/59 51/59/59
f 70/82/60 33/35/60 34/36/60
f 53/63/61 35/55/61 48/52/61
f 48/52/62 59/70/62 53/63/62
f 71/83/63 54/64/63 57/68/63
f 64/75/64 69/81/64 47/61/64
f 59/70/65 48/52/65 54/64/65
f 65/77/66 41/60/66 58/69/66
f 60/71/67 68/80/67 53/63/67
f 43/65/68 50/57/68 66/78/68
f 73/85/69 72/84/69 43/65/69 66/78/69
f 74/87/70 49/86/70 43/45/70 44/46/70
f 70/82/71 34/36/71 49/89/71 74/88/71
f 44/46/72 45/47/72 75/90/72
f 43/65/73 72/84/73 42/91/73
f 79/95/74 78/94/74 77/93/74 76/92/74
f 79/95/75 81/97/75 80/96/75 78/94/75
f 76/92/76 83/99/76 82/98/76 79/95/76
f 84/100/77 83/99/77 76/92/77
f 88/104/78 87/103/78 86/102/78 85/101/78
f 88/104/79 89/105/79 87/103/79
f 90/106/80 88/104/80 85/101/80
f 78/110/81 57/109/81 56/108/81 77/107/81
f 77/107/82 56/108/82 51/112/82 76/111/82
f 76/111/83 51/112/83 65/114/83 84/113/83
f 84/113/84 65/114/84 58/116/84 83/115/84
f 83/115/85 58/116/85 52/118/85 82/117/85
f 82/117/86 52/118/86 69/120/86 79/119/86
f 79/119/87 69/120/87 64/122/87 81/121/87
f 80/124/88 71/123/88 57/109/88 78/110/88
f 85/128/89 62/127/89 63/126/89 90/125/89
f 90/125/90 63/126/90 68/130/90 88/129/90
f 89/134/91 73/133/91 66/132/91 87/131/91
f 87/131/92 66/132/92 67/136/92 86/135/92
f 86/135/93 67/136/93 62/127/93 85/128/93
f 94/140/94 93/139/94 92/138/94 91/137/94
f 97/144/95 55/143/95 96/142/95 95/141/95
f 80/145/96 55/143/96 97/144/96 93/139/96
f 81/148/97 64/147/97 61/146/97 55/143/97
f 80/145/98 81/148/98 55/143/98
f 60/151/99 54/150/99 71/149/99 80/145/99
f 60/151/100 59/152/100 54/150/100
f 80/145/101 88/154/101 68/153/101 60/151/101
f 93/139/102 89/155/102 88/154/102 80/145/102
f 45/158/103 72/157/103 73/156/103 89/155/103
f 45/158/104 42/159/104 72/157/104
f 45/158/105 99/162/105 98/161/105 75/160/105
f 100/163/106 99/162/106 45/158/106 89/155/106
f 100/163/107 102/165/107 101/164/107 99/162/107
f 94/140/108 100/163/108 89/155/108 93/139/108
f 91/137/109 104/167/109 103/166/109 94/140/109
f 105/168/110 104/167/110 91/137/110
f 109/172/111 108/171/111 107/170/111 106/169/111
f 112/170/112 111/175/112 110/174/112 107/173/112
f 108/176/112 112/170/112 107/173/112
f 115/171/113 114/177/113 113/170/113 109/169/113
f 106/172/114 115/171/114 109/169/114
f 109/172/115 113/171/115 112/170/115 108/169/115
f 115/180/116 106/180/116 107/179/116 110/178/116
f 114/182/117 111/181/117 112/170/117 113/169/117
f 117/184/118 115/180/118 110/178/118 116/183/118
f 111/175/119 116/183/119 110/174/119
f 116/183/120 111/181/120 114/182/120 117/184/120
f 115/171/121 117/184/121 114/177/121
f 120/187/122 119/186/122 118/185/122
f 121/188/122 118/185/122 119/186/122
f 124/185/123 123/190/123 122/189/123
f 125/191/124 122/189/124 123/190/124
f 118/194/125 121/193/125 124/192/125
f 123/195/126 124/192/126 121/193/126
f 119/186/127 126/196/127 121/188/127
f 123/190/124 127/197/124 125/191/124
f 121/193/128 128/198/128 123/195/128
f 119/186/129 129/199/129 126/196/129
f 131/201/130 130/200/130 125/191/130
f 127/202/131 123/195/131 128/198/131
f 126/205/132 132/204/132 131/203/132
f 130/206/133 131/203/133 132/204/133
f 132/207/122 126/196/122 129/199/122
f 132/209/134 129/208/134 130/206/134
f 133/210/135 130/206/135 129/208/135
f 133/211/136 125/191/136 130/200/136
f 131/201/130 125/191/130 127/197/130
f 127/202/137 128/212/137 131/203/137
f 128/213/138 121/188/138 126/196/138
f 126/205/139 131/203/139 128/212/139
f 136/186/140 135/187/140 134/185/140
f 134/185/140 137/188/140 136/186/140
f 140/190/123 139/185/123 138/189/123
f 138/189/123 141/191/123 140/190/123
f 137/216/141 134/215/141 139/214/141
f 139/214/141 140/217/141 137/216/141
f 142/196/140 136/186/140 137/188/140
f 143/197/123 140/190/123 141/191/123
f 144/218/142 137/216/142 140/217/142
f 145/199/127 136/186/127 142/196/127
f 147/200/123 146/201/123 141/191/123
f 140/217/143 143/219/143 144/218/143
f 148/222/144 142/221/144 146/220/144
f 146/220/145 147/223/145 148/222/145
f 142/196/146 148/207/146 145/199/146
f 145/225/147 148/224/147 147/223/147
f 147/223/148 149/226/148 145/225/148
f 141/191/149 149/211/149 147/200/149
f 141/191/124 146/201/124 143/197/124
f 144/227/150 143/219/150 146/220/150
f 137/188/151 144/213/151 142/196/151
f 146/220/152 142/221/152 144/227/152
f 183/36/171 182/37/171 33/35/171
f 182/37/172 184/39/172 36/38/172
f 184/39/173 185/41/173 38/40/173
f 185/41/174 186/43/174 40/42/174
f 40/42/175 38/40/175 185/41/175
f 187/45/176 44/46/176 98/47/176 99/44/176
f 46/49/177 40/50/177 186/48/177
f 186/48/178 188/51/178 46/49/178
f 185/53/179 184/54/179 189/52/179
f 189/52/180 184/54/180 182/55/180
f 191/57/181 183/58/181 190/56/181
f 186/60/182 185/53/182 192/59/182
f 186/60/183 193/62/183 188/61/183
f 194/63/184 182/55/184 183/58/184
f 91/64/185 185/53/185 189/52/185
f 191/57/186 190/56/186 187/65/186
f 55/66/187 46/49/187 188/51/187
f 185/53/188 196/68/188 195/67/188
f 186/60/189 197/69/189 193/62/189
f 194/63/190 104/71/190 105/70/190
f 36/38/191 33/35/191 182/37/191
f 188/51/192 96/72/192 55/66/192
f 38/40/193 36/38/193 184/39/193
f 183/58/194 191/57/194 194/63/194
f 199/73/195 198/74/195 194/63/195
f 95/75/196 96/76/196 188/61/196
f 199/73/197 194/63/197 191/57/197
f 186/60/198 192/59/198 200/77/198
f 202/78/199 201/79/199 191/57/199
f 198/74/200 103/80/200 194/63/200
f 185/53/201 91/64/201 196/68/201
f 193/62/202 203/81/202 188/61/202
f 201/79/203 199/73/203 191/57/203
f 185/53/204 195/67/204 192/59/204
f 33/35/205 70/82/205 183/36/205
f 182/55/206 194/63/206 189/52/206
f 105/70/207 189/52/207 194/63/207
f 91/64/208 92/83/208 196/68/208
f 203/81/209 95/75/209 188/61/209
f 189/52/210 105/70/210 91/64/210
f 186/60/211 200/77/211 197/69/211
f 103/80/212 104/71/212 194/63/212
f 191/57/213 187/65/213 202/78/213
f 187/65/214 101/84/214 102/85/214 202/78/214
f 187/45/215 190/86/215 74/87/215 44/46/215
f 190/89/216 183/36/216 70/82/216 74/88/216
f 98/47/72 44/46/72 75/90/72
f 101/84/217 187/65/217 99/91/217
f 207/95/218 206/99/218 205/100/218 204/92/218
f 207/95/219 208/98/219 206/99/219
f 207/95/220 209/94/220 93/96/220 97/97/220
f 210/93/221 209/94/221 207/95/221 204/92/221
f 213/103/222 94/104/222 212/106/222 211/101/222
f 213/103/223 100/105/223 94/104/223
f 214/102/224 213/103/224 211/101/224
f 195/108/225 196/109/225 209/110/225 210/107/225
f 192/112/226 195/108/226 210/107/226 204/111/226
f 200/114/227 192/112/227 204/111/227 205/113/227
f 197/116/228 200/114/228 205/113/228 206/115/228
f 193/118/229 197/116/229 206/115/229 208/117/229
f 203/120/230 193/118/230 208/117/230 207/119/230
f 95/122/231 203/120/231 207/119/231 97/121/231
f 196/109/232 92/123/232 93/124/232 209/110/232
f 198/126/233 199/127/233 211/128/233 212/125/233
f 103/130/234 198/126/234 212/125/234 94/129/234
f 202/132/235 102/133/235 100/134/235 213/131/235
f 201/136/236 202/132/236 213/131/236 214/135/236
f 199/127/237 201/136/237 214/135/237 211/128/237
f 218/170/238 217/171/238 216/172/238 215/169/238
f 220/175/239 219/170/239 217/176/239 218/173/239
f 221/174/240 220/175/240 218/173/240
f 223/177/241 222/171/241 215/172/241 216/169/241
f 224/170/242 223/177/242 216/169/242
f 219/170/243 224/171/243 216/172/243 217/169/243
f 218/179/244 215/180/244 222/180/244 221/178/244
f 219/170/245 220/181/245 223/182/245 224/169/245
f 221/178/246 222/180/246 226/184/246 225/183/246
f 225/183/247 220/175/247 221/174/247
f 223/182/248 220/181/248 225/183/248 226/184/248
f 226/184/249 222/171/249 223/177/249
f 227/186/146 120/187/146 118/185/146
f 118/185/146 228/188/146 227/186/146
f 229/190/130 124/185/130 122/189/130
f 122/189/250 230/191/250 229/190/250
f 228/193/251 118/194/251 124/192/251
f 124/192/252 229/195/252 228/193/252
f 231/196/151 227/186/151 228/188/151
f 232/197/250 229/190/250 230/191/250
f 233/198/253 228/193/253 229/195/253
f 234/199/254 227/186/254 231/196/254
f 236/200/123 235/201/123 230/191/123
f 229/195/255 232/202/255 233/198/255
f 237/204/256 231/205/256 235/203/256
f 235/203/257 236/206/257 237/204/257
f 231/196/146 237/207/146 234/199/146
f 234/208/258 237/209/258 236/206/258
f 236/206/259 238/210/259 234/208/259
f 230/191/260 238/211/260 236/200/260
f 230/191/123 235/201/123 232/197/123
f 233/212/261 232/202/261 235/203/261
f 228/188/262 233/213/262 231/196/262
f 235/203/263 231/205/263 233/212/263
f 135/187/264 239/186/264 134/185/264
f 240/188/264 134/185/264 239/186/264
f 139/185/130 241/190/130 138/189/130
f 242/191/130 138/189/130 241/190/130
f 134/215/265 240/216/265 139/214/265
f 241/217/265 139/214/265 240/216/265
f 239/186/264 243/196/264 240/188/264
f 241/190/130 244/197/130 242/191/130
f 240/216/266 245/218/266 241/217/266
f 239/186/151 246/199/151 243/196/151
f 248/201/130 247/200/130 242/191/130
f 244/219/267 241/217/267 245/218/267
f 243/221/268 249/222/268 248/220/268
f 247/223/269 248/220/269 249/222/269
f 249/207/122 243/196/122 246/199/122
f 249/224/270 246/225/270 247/223/270
f 250/226/271 247/223/271 246/225/271
f 250/211/272 242/191/272 247/200/272
f 248/201/250 242/191/250 244/197/250
f 244/219/273 245/227/273 248/220/273
f 245/213/127 240/188/127 243/196/127
f 243/221/274 248/220/274 245/227/274
# 119 polygons - 210 triangles

